HIERARCHY
ROOT Hips
{
	OFFSET 0.0000 0.0000 0.0000
	CHANNELS 6 Xposition Yposition Zposition Zrotation Xrotation Yrotation
	JOINT Spine1
	{
		OFFSET -0.0137 5.0038 -0.0537
		CHANNELS 3 Zrotation Xrotation Yrotation
		JOINT Spine2
		{
			OFFSET -0.0000 7.1253 -0.0298
			CHANNELS 3 Zrotation Xrotation Yrotation
			JOINT Chest
			{
				OFFSET -0.0000 7.5501 -0.8160
				CHANNELS 3 Zrotation Xrotation Yrotation
				JOINT Neck1
				{
					OFFSET -0.1817 26.3113 -0.5533
					CHANNELS 3 Zrotation Xrotation Yrotation
					JOINT Neck2
					{
						OFFSET -0.0000 7.7094 2.3026
						CHANNELS 3 Zrotation Xrotation Yrotation
						JOINT Head
						{
							OFFSET -0.0000 6.1289 1.9537
							CHANNELS 3 Zrotation Xrotation Yrotation
							JOINT Jaw
							{
								OFFSET 0.0026 0.4756 3.0949
								CHANNELS 3 Zrotation Xrotation Yrotation
								End Site
								{
									OFFSET 0.0 1.0 0.0
								}
							}
							JOINT LeftEye
							{
								OFFSET 3.2064 5.3802 7.5869
								CHANNELS 3 Zrotation Xrotation Yrotation
								End Site
								{
									OFFSET 0.0 1.0 0.0
								}
							}
							JOINT RightEye
							{
								OFFSET -3.2224 5.3619 7.5582
								CHANNELS 3 Zrotation Xrotation Yrotation
								End Site
								{
									OFFSET 0.0 1.0 0.0
								}
							}
						}
					}
				}
				JOINT LeftShoulder
				{
					OFFSET 1.6217 23.2372 5.1134
					CHANNELS 3 Zrotation Xrotation Yrotation
					JOINT LeftArm
					{
						OFFSET 14.9198 0.0000 -5.5023
						CHANNELS 3 Zrotation Xrotation Yrotation
						JOINT LeftForeArm
						{
							OFFSET 28.7393 0.0000 -0.0026
							CHANNELS 3 Zrotation Xrotation Yrotation
							JOINT LeftHand
							{
								OFFSET 27.0940 -0.0000 0.0026
								CHANNELS 3 Zrotation Xrotation Yrotation
								JOINT LeftHandThumbEnd
								{
									OFFSET 12.2686 -3.2202 4.8331
									CHANNELS 3 Zrotation Xrotation Yrotation
									End Site
									{
										OFFSET 0.0 1.0 0.0
									}
								}
								JOINT LeftHandMiddleEnd
								{
									OFFSET 19.0120 -0.3129 -0.0340
									CHANNELS 3 Zrotation Xrotation Yrotation
									End Site
									{
										OFFSET 0.0 1.0 0.0
									}
								}
							}
						}
					}
				}
				JOINT RightShoulder
				{
					OFFSET -1.3801 23.1803 5.2142
					CHANNELS 3 Zrotation Xrotation Yrotation
					JOINT RightArm
					{
						OFFSET -15.0372 0.0000 -5.5456
						CHANNELS 3 Zrotation Xrotation Yrotation
						JOINT RightForeArm
						{
							OFFSET -28.7366 0.0000 -0.0026
							CHANNELS 3 Zrotation Xrotation Yrotation
							JOINT RightHand
							{
								OFFSET -27.1336 -0.0000 0.0026
								CHANNELS 3 Zrotation Xrotation Yrotation
								JOINT RightHandThumbEnd
								{
									OFFSET -12.2642 -3.2115 4.8040
									CHANNELS 3 Zrotation Xrotation Yrotation
									End Site
									{
										OFFSET 0.0 1.0 0.0
									}
								}
								JOINT RightHandMiddleEnd
								{
									OFFSET -19.0006 -0.3066 -0.0316
									CHANNELS 3 Zrotation Xrotation Yrotation
									End Site
									{
										OFFSET 0.0 1.0 0.0
									}
								}
							}
						}
					}
				}
			}
		}
	}
	JOINT LeftLeg
	{
		OFFSET 10.0432 -8.4345 2.5957
		CHANNELS 3 Zrotation Xrotation Yrotation
		JOINT LeftShin
		{
			OFFSET -0.0000 -43.2218 -0.8029
			CHANNELS 3 Zrotation Xrotation Yrotation
			JOINT LeftFoot
			{
				OFFSET 0.0000 -42.1551 -3.4815
				CHANNELS 3 Zrotation Xrotation Yrotation
				JOINT LeftToeBase
				{
					OFFSET 0.0000 -5.0595 13.2315
					CHANNELS 3 Zrotation Xrotation Yrotation
					End Site
					{
						OFFSET 0.0 1.0 0.0
					}
				}
			}
		}
	}
	JOINT RightLeg
	{
		OFFSET -10.0473 -8.2953 2.6203
		CHANNELS 3 Zrotation Xrotation Yrotation
		JOINT RightShin
		{
			OFFSET 0.0000 -43.3622 -0.8056
			CHANNELS 3 Zrotation Xrotation Yrotation
			JOINT RightFoot
			{
				OFFSET 0.0000 -42.1174 -3.4784
				CHANNELS 3 Zrotation Xrotation Yrotation
				JOINT RightToeBase
				{
					OFFSET -0.0000 -5.0796 13.2842
					CHANNELS 3 Zrotation Xrotation Yrotation
					End Site
					{
						OFFSET 0.0 1.0 0.0
					}
				}
			}
		}
	}
}
MOTION
Frames: 12
Frame Time: 0.033333
-0.8184 94.0291 0.1038 -1.2489 -5.4673 4.1049 0.3496 3.2957 0.0242 -0.3992 -3.8197 -0.0561 0.0121 9.3861 -2.0427 5.9432 26.5253 1.1362 -1.2381 -3.6956 -0.5144 -0.2781 -7.8725 -1.5793 0.0210 0.0474 -0.0060 0.7052 -10.4435 -3.8422 -0.6611 -10.4634 3.8251 7.7272 6.6989 -6.9998 -9.9183 -24.7034 -33.1715 0.5264 0.5208 -108.6726 12.8415 1.9092 -7.3577 -15.5150 10.2887 15.0020 -60.3454 1.4483 2.0952 -6.4859 8.7464 10.7897 -0.3328 -20.6906 22.8671 -1.6915 0.7244 112.4153 -13.2511 -14.9709 9.7145 15.3806 7.7613 -16.6213 50.8940 -3.3025 -5.3749 16.3368 -17.8434 13.6068 -0.4024 34.8209 -0.5864 -12.6484 -13.8391 -15.7066 1.6257 -0.6119 -1.7981 -14.1235 -13.2256 -24.8107 0.4701 34.6473 0.4815 11.4514 -16.8570 9.8581 -1.4381 -0.1194 0.9865
-0.8579 94.0027 0.2154 -1.3141 -5.5363 4.0904 0.4146 3.2552 0.0494 -0.3756 -3.8119 -0.0298 0.0828 9.4325 -2.0353 5.9371 26.4354 1.1734 -1.2643 -3.7085 -0.6090 -0.3226 -7.9118 -1.6360 0.0253 0.0461 -0.0210 0.7118 -10.4450 -3.8558 -0.6591 -10.4642 3.8069 7.7387 6.6571 -6.9846 -10.1014 -24.6226 -33.2650 0.5818 0.5501 -108.4211 13.1786 2.0041 -7.6042 -15.5137 10.2477 14.9943 -60.3508 1.4400 2.0672 -6.4728 8.7784 10.9326 -0.4323 -20.7692 23.1167 -1.6788 0.6715 112.6629 -13.1707 -15.1733 9.9201 15.3647 7.6972 -16.5653 50.8872 -3.2734 -5.3487 16.4836 -17.7565 13.5484 -0.3973 34.9333 -0.5853 -12.6322 -13.9394 -15.7077 1.6238 -0.6203 -1.8023 -14.0956 -13.0661 -24.8215 0.4720 34.6817 0.4889 11.4490 -16.8813 9.7817 -1.4327 -0.1010 0.9912
-0.8750 94.0158 0.3536 -1.3806 -5.5921 4.0797 0.4690 3.1973 0.0662 -0.3589 -3.8224 -0.0205 0.1588 9.4640 -2.0021 5.9054 26.3756 1.2046 -1.3000 -3.7238 -0.6779 -0.3762 -7.9107 -1.6989 0.0270 0.0441 -0.0309 0.7155 -10.4484 -3.8648 -0.6598 -10.4683 3.7956 7.8389 6.5960 -7.0381 -10.3100 -24.6062 -33.2315 0.5990 0.5467 -108.1796 13.5136 1.9388 -7.7947 -15.5410 10.2108 15.0045 -60.3839 1.4428 2.0550 -6.4401 8.8086 11.0680 -0.6440 -20.8167 23.4702 -1.6442 0.6043 112.8138 -13.1558 -15.3686 10.1463 15.3920 7.6509 -16.5265 50.9254 -3.2327 -5.3196 16.6305 -17.5966 13.5160 -0.4011 34.8744 -0.5937 -12.6239 -14.0003 -15.7150 1.6243 -0.6257 -1.8039 -14.0485 -12.8196 -24.8082 0.4646 34.5449 0.4813 11.4713 -16.8732 9.6981 -1.4280 -0.1120 0.9886
-0.9013 94.0516 0.4795 -1.4439 -5.6378 4.0468 0.5283 3.1273 0.0601 -0.3442 -3.8378 0.0063 0.2257 9.4757 -1.9842 5.8139 26.3045 1.2464 -1.3103 -3.7314 -0.7760 -0.4448 -7.8859 -1.7158 0.0251 0.0403 -0.0283 0.7173 -10.4500 -3.8634 -0.6650 -10.4697 3.7991 7.9987 6.5429 -7.1284 -10.4614 -24.5368 -33.0634 0.6284 0.5404 -107.9667 13.8249 1.7282 -7.9413 -15.5650 10.1895 15.0160 -60.3779 1.4583 2.0574 -6.4156 8.8348 11.2289 -0.9634 -20.8610 23.8659 -1.5645 0.5848 112.8510 -13.2445 -15.5408 10.4157 15.4264 7.6290 -16.5103 50.9747 -3.1983 -5.3137 16.7567 -17.3666 13.5226 -0.3894 34.6629 -0.5828 -12.6302 -14.0010 -15.7339 1.6274 -0.6554 -1.8080 -13.9958 -12.5035 -24.7601 0.4541 34.2569 0.4730 11.5094 -16.8174 9.6067 -1.4244 -0.1420 0.9864
-0.9046 94.1086 0.6267 -1.4848 -5.6829 3.9795 0.5850 3.0590 0.0535 -0.3390 -3.8652 0.0207 0.2645 9.4644 -1.9685 5.6877 26.2257 1.3113 -1.3160 -3.7372 -0.8474 -0.5245 -7.8379 -1.7493 0.0218 0.0379 -0.0238 0.7158 -10.4618 -3.8595 -0.6704 -10.4809 3.8050 8.2017 6.5161 -7.2221 -10.4846 -24.3749 -32.7993 0.7451 0.4547 -107.8506 14.1524 1.4228 -8.0080 -15.5706 10.2103 15.0298 -60.3845 1.4837 2.0231 -6.4033 8.8594 11.3823 -1.3918 -20.8392 24.2669 -1.5450 0.5764 112.9070 -13.3490 -15.5054 10.5951 15.4657 7.6256 -16.5203 51.0225 -3.1631 -5.3008 16.8466 -17.1069 13.5634 -0.3790 34.4143 -0.5808 -12.6448 -13.9953 -15.7408 1.6304 -0.6832 -1.8136 -13.9381 -12.1476 -24.6435 0.4268 33.9079 0.4478 11.5225 -16.7974 9.4997 -1.4214 -0.1830 0.9720
-0.9147 94.1788 0.7638 -1.5176 -5.7076 3.9104 0.6507 2.9798 0.0480 -0.3367 -3.8902 0.0239 0.2861 9.4396 -1.9431 5.5490 26.1105 1.3959 -1.3238 -3.7356 -0.9210 -0.6125 -7.7815 -1.7859 0.0212 0.0383 -0.0256 0.7158 -10.4540 -3.8619 -0.6714 -10.4752 3.8042 8.3984 6.4759 -7.3141 -10.4861 -24.1994 -32.4646 0.8392 0.4551 -107.8143 14.5034 0.9113 -8.0722 -15.5509 10.2499 15.0711 -60.3687 1.5239 2.0048 -6.4091 8.8991 11.5196 -1.8431 -20.8526 24.6093 -1.4748 0.6521 112.9951 -13.4552 -15.4207 10.7765 15.4563 7.6327 -16.5657 51.0356 -3.1614 -5.3235 16.9337 -16.8120 13.6251 -0.3725 34.0703 -0.5792 -12.7246 -13.9262 -15.7325 1.6362 -0.7021 -1.8207 -13.8921 -11.7728 -24.5150 0.4112 33.4875 0.4285 11.5396 -16.7502 9.3756 -1.4242 -0.1970 0.9671
-0.9186 94.2641 0.9072 -1.5325 -5.7368 3.8427 0.7066 2.9148 0.0285 -0.3361 -3.9260 0.0402 0.2963 9.4092 -1.9367 5.4016 26.0427 1.4704 -1.3306 -3.7214 -0.9907 -0.6971 -7.7143 -1.7930 0.0228 0.0435 -0.0328 0.7169 -10.4510 -3.8723 -0.6692 -10.4738 3.7980 8.6058 6.5318 -7.3864 -10.4229 -24.0317 -32.0793 0.9661 0.3915 -107.8912 14.8929 0.3914 -8.1308 -15.5365 10.2778 15.1252 -60.3540 1.5200 2.0144 -6.4451 8.9510 11.6242 -2.3453 -20.8792 24.9095 -1.4411 0.6119 113.1640 -13.5621 -15.3231 10.9245 15.5023 7.6250 -16.6038 51.0963 -3.1671 -5.3567 16.9902 -16.5112 13.6708 -0.3629 33.7223 -0.5608 -12.8117 -13.8167 -15.7157 1.6385 -0.6984 -1.8127 -13.8464 -11.4182 -24.4048 0.4016 33.0829 0.4168 11.5456 -16.6936 9.2373 -1.4251 -0.1936 0.9619
-0.9334 94.3448 1.0492 -1.5398 -5.7608 3.7947 0.7626 2.8505 -0.0042 -0.3352 -3.9419 0.0665 0.3024 9.3617 -1.9430 5.2667 25.9784 1.5290 -1.3122 -3.7170 -1.0340 -0.7753 -7.6129 -1.7892 0.0246 0.0448 -0.0406 0.7167 -10.4446 -3.8823 -0.6653 -10.4680 3.7907 8.7912 6.5566 -7.4321 -10.4373 -23.8513 -31.6293 0.9769 0.3562 -108.0674 15.3535 -0.2083 -8.2108 -15.5775 10.2990 15.1857 -60.3990 1.5190 2.0330 -6.5109 8.9499 11.7014 -2.7751 -20.7864 25.1501 -1.4428 0.5811 113.4636 -13.6684 -15.2176 11.0425 15.6152 7.6494 -16.6510 51.1976 -3.1825 -5.3694 17.0421 -16.2027 13.7237 -0.3558 33.3526 -0.5455 -12.9096 -13.6970 -15.7179 1.6429 -0.6953 -1.7991 -13.8215 -11.0603 -24.3474 0.3857 32.6506 0.4019 11.5908 -16.6210 9.0963 -1.4259 -0.1704 0.9635
-0.9515 94.4091 1.1781 -1.5410 -5.7920 3.7703 0.8202 2.8003 -0.0178 -0.3304 -3.9508 0.0735 0.2930 9.3157 -1.9482 5.1563 25.9178 1.5522 -1.2973 -3.7111 -1.0293 -0.8336 -7.5175 -1.7857 0.0258 0.0449 -0.0410 0.7136 -10.4312 -3.8835 -0.6597 -10.4565 3.7910 8.9839 6.5439 -7.4601 -10.5623 -23.5117 -31.1823 0.9988 0.3716 -108.3484 15.7456 -0.8782 -8.3210 -15.6193 10.3181 15.2122 -60.4776 1.5293 2.0900 -6.6164 8.9039 11.7687 -3.0360 -20.6108 25.2814 -1.4601 0.5933 113.8606 -13.6907 -15.2436 11.0508 15.6923 7.6773 -16.6518 51.2266 -3.1972 -5.3722 17.0994 -15.9212 13.7939 -0.3669 33.0122 -0.5547 -13.0027 -13.5928 -15.7628 1.6450 -0.6940 -1.7870 -13.8284 -10.7334 -24.3237 0.3813 32.2638 0.4060 11.6515 -16.5492 9.0069 -1.4284 -0.1874 0.9764
-0.9727 94.4779 1.2870 -1.5319 -5.8124 3.7701 0.8624 2.7609 -0.0343 -0.3223 -3.9617 0.0823 0.2845 9.2771 -1.9489 5.0481 25.8597 1.5528 -1.2602 -3.7033 -1.0110 -0.8603 -7.4116 -1.7846 0.0253 0.0422 -0.0362 0.7126 -10.4363 -3.8814 -0.6599 -10.4643 3.7978 9.1708 6.5250 -7.4600 -10.7617 -23.1146 -30.7983 1.0354 0.3846 -108.6601 16.0455 -1.5026 -8.4648 -15.6257 10.3386 15.2379 -60.5557 1.5419 2.1316 -6.7218 8.8673 11.8315 -3.1704 -20.3943 25.3194 -1.5277 0.5154 114.3107 -13.5959 -15.3341 11.0191 15.7410 7.6894 -16.6541 51.2605 -3.1976 -5.3724 17.1215 -15.6949 13.8531 -0.3697 32.7538 -0.5467 -13.0552 -13.5116 -15.8110 1.6456 -0.7141 -1.7803 -13.8392 -10.4734 -24.2995 0.3796 31.9644 0.4016 11.6594 -16.4822 8.9647 -1.4306 -0.2262 0.9760
-1.0106 94.5381 1.3846 -1.5071 -5.8234 3.7581 0.8899 2.7249 -0.0343 -0.3173 -3.9580 0.0894 0.2798 9.2444 -1.9323 4.9651 25.7820 1.5537 -1.2401 -3.6989 -0.9857 -0.8382 -7.2833 -1.8086 0.0258 0.0418 -0.0355 0.7120 -10.4404 -3.8809 -0.6584 -10.4719 3.7984 9.3431 6.4782 -7.4284 -11.0090 -22.6426 -30.4937 1.0757 0.4058 -108.9851 16.2526 -1.9989 -8.6509 -15.6287 10.3653 15.2637 -60.6009 1.5679 2.1404 -6.8139 8.8480 11.8939 -3.1889 -20.1906 25.2818 -1.6036 0.3973 114.7511 -13.4482 -15.6624 11.0494 15.7455 7.6758 -16.6269 51.2262 -3.2171 -5.3736 17.1283 -15.5038 13.9308 -0.3671 32.5343 -0.5388 -13.0913 -13.4530 -15.8692 1.6456 -0.7289 -1.7793 -13.8573 -10.2700 -24.2354 0.3783 31.7483 0.4087 11.6328 -16.4695 8.8890 -1.4332 -0.2602 0.9812
-1.0244 94.5737 1.4705 -1.4723 -5.8255 3.7383 0.9107 2.7095 -0.0085 -0.3034 -3.9645 0.0837 0.2676 9.2308 -1.9076 4.8823 25.6922 1.5669 -1.2347 -3.6926 -0.9695 -0.7720 -7.1597 -1.8705 0.0260 0.0447 -0.0367 0.7120 -10.4432 -3.8830 -0.6582 -10.4746 3.7993 9.5347 6.4638 -7.3948 -11.2780 -22.1760 -30.2499 1.1648 0.4018 -109.3282 16.3584 -2.4624 -8.8443 -15.6135 10.3636 15.2500 -60.5635 1.5641 2.0924 -6.9073 8.8524 11.9646 -3.1063 -20.0330 25.2020 -1.6234 0.2934 115.1326 -13.2464 -16.2629 11.0944 15.7485 7.6304 -16.5817 51.1660 -3.2395 -5.3546 17.1208 -15.3454 13.9869 -0.3681 32.3552 -0.5338 -13.1126 -13.3916 -15.8871 1.6438 -0.7557 -1.7852 -13.8864 -10.1349 -24.1418 0.3730 31.6187 0.4013 11.6136 -16.4907 8.7735 -1.4350 -0.2987 0.9908
